<svg version="1.0" xmlns="http://www.w3.org/2000/svg"
    xmlns:xlink="http://www.w3.org/1999/xlink" width="100%" height="100%"
    viewBox="0 0 340.000000 250.000000" preserveAspectRatio="xMidYMid meet"
    color-interpolation-filters="sRGB" style="margin: auto;" class="__web-inspector-hide-shortcut__">
    <rect x="0" y="0" width="100%" height="100%" fill="#787BB0" fill-opacity="1"
        class="background"></rect>
    <g fill="#feffff" class="bordersvg b-d1"
        transform="translate(83.6845703125,51.2199842506152)">
        <path fill-opacity="0" stroke="#feffff" stroke-width="4"
            d="M 30 47.265005111694336 A 73.7800064086914 73.7800064086914 0 1 1 30 100.29500770568848">
        </path>
        <g transform="translate(0,47.265005111694336)">
            <g>
                <rect data-gra="graph-name-bg" stroke-width="2" class="i-icon-bg" x="0" y="0"
                    width="167.5600128173828" height="53.03000259399414" fill-opacity="0"></rect>
            </g>
            <g transform="translate(10,3)">
                <g data-gra="path-name" fill-rule="" class="tp-name">
                    <g transform="scale(1)">
                        <g>
                            <path
                                d="M38.69-31.64L38.69-31.64Q38.69-23.87 34.1-19.63 29.52-15.39 21.07-15.39L21.07-15.39 17.55-15.39 17.55 0 5.01 0 5.01-46.4 21.07-46.4Q29.87-46.4 34.28-42.56 38.69-38.72 38.69-31.64ZM17.55-36.28L17.55-25.61 19.84-25.61Q22.66-25.61 24.33-27.2 25.99-28.79 25.99-31.58L25.99-31.58Q25.99-36.28 20.79-36.28L20.79-36.28 17.55-36.28ZM80.33 0L70.97 0 69.41-4.48 68.68-4.48Q67.13-2 64.35-0.68 61.57 0.63 57.83 0.63L57.83 0.63Q51.89 0.63 48.59-2.81 45.29-6.25 45.29-12.54L45.29-12.54 45.29-35.96 57.7-35.96 57.7-16.31Q57.7-12.79 58.7-10.98 59.7-9.17 61.98-9.17L61.98-9.17Q65.19-9.17 66.56-11.7 67.92-14.22 67.92-20.22L67.92-20.22 67.92-35.96 80.33-35.96 80.33 0ZM110.61-36.59L110.61-36.59Q112.23-36.59 113.69-36.34L113.69-36.34 114.38-36.21 113.27-24.5Q111.75-24.88 109.05-24.88L109.05-24.88Q104.99-24.88 103.15-23.03 101.31-21.17 101.31-17.68L101.31-17.68 101.31 0 88.9 0 88.9-35.96 98.13-35.96 100.07-30.21 100.67-30.21Q102.23-33.07 105.01-34.83 107.78-36.59 110.61-36.59ZM136.76 0.63L136.76 0.63Q127.78 0.63 122.81-4.14 117.84-8.92 117.84-17.74L117.84-17.74Q117.84-26.85 122.45-31.72 127.05-36.59 135.59-36.59L135.59-36.59Q143.71-36.59 148.14-32.36 152.57-28.12 152.57-20.15L152.57-20.15 152.57-14.63 130.38-14.63Q130.51-11.62 132.59-9.9 134.67-8.19 138.25-8.19L138.25-8.19Q141.52-8.19 144.27-8.81 147.01-9.43 150.22-10.92L150.22-10.92 150.22-2Q147.3-0.51 144.19 0.06 141.08 0.63 136.76 0.63ZM136.03-28.15L136.03-28.15Q133.84-28.15 132.36-26.77 130.89-25.39 130.63-22.44L130.63-22.44 141.3-22.44Q141.24-25.04 139.82-26.6 138.41-28.15 136.03-28.15Z"
                                transform="translate(-5.010000228881836, 46.400001525878906)"></path>
                        </g>
                    </g>
                </g>
            </g>
        </g>
    </g>
    <defs v-gra="od"></defs>
</svg>
